# 3ds Max Wavefront OBJ Exporter v0.97b - (c)2007 guruware
# File Created: 17.11.2010 17:49:56

mtllib Lowpoly Old Notebook(obj).mtl

#
# object Box001
#

v  -50.0000 0.0000 36.7478
v  -50.0000 0.0000 -40.0000
v  50.0000 0.0000 -40.0000
v  50.0000 0.0000 36.7478
v  -39.6000 9.7724 8.5873
v  39.6000 9.7724 8.5873
v  39.6000 11.0633 -29.5871
v  -39.6000 11.0633 -29.5871
v  50.0000 7.0964 40.0000
v  -50.0000 7.0964 40.0000
v  50.0000 10.0000 -40.0000
v  -50.0000 10.0000 -40.0000
v  34.3534 10.0000 -40.0000
v  -36.9708 10.0000 -40.0000
v  -29.4465 10.0000 -40.0000
v  32.0639 10.0000 -40.0000
v  40.0000 8.2278 9.5169
v  -40.0000 8.2278 9.5169
v  40.0000 9.6373 -30.0066
v  34.3534 9.9778 -39.4716
v  34.3534 9.8861 -36.9309
v  34.3534 9.6373 -30.0066
v  -40.0000 9.6373 -30.0066
v  30.6625 9.6373 -30.0066
v  -38.8100 9.6373 -30.0066
v  -29.4465 9.6373 -30.0066
v  -36.9708 9.9778 -39.4716
v  -36.9708 9.8861 -36.9309
v  -29.4465 9.9778 -39.4716
v  -29.4465 9.8861 -36.9309
v  32.0639 9.9778 -39.4716
v  32.0639 9.8861 -36.9309
v  -36.9708 14.8238 -38.2527
v  -36.9708 14.8069 -37.7871
v  -29.4465 14.8069 -37.7871
v  -29.4465 14.8238 -38.2527
v  32.0639 14.8238 -38.2527
v  32.0639 14.8069 -37.7871
v  34.3534 14.8069 -37.7871
v  34.3534 14.8238 -38.2527
v  -36.9708 13.8239 -39.3279
v  -29.4465 13.8239 -39.3279
v  -36.9708 13.7317 -36.7872
v  -36.9708 14.1948 -36.9596
v  -36.9708 14.6014 -37.3377
v  -36.9708 14.6514 -38.7158
v  -36.9708 14.2733 -39.1224
v  -29.4465 13.7317 -36.7872
v  -29.4465 14.2733 -39.1224
v  -29.4465 14.6514 -38.7158
v  -29.4465 14.6014 -37.3377
v  -29.4465 14.1948 -36.9596
v  32.0639 13.8239 -39.3279
v  34.3534 13.8239 -39.3279
v  32.0639 13.7317 -36.7872
v  32.0639 14.1948 -36.9596
v  32.0639 14.6014 -37.3377
v  32.0639 14.6514 -38.7158
v  32.0639 14.2733 -39.1224
v  34.3534 13.7317 -36.7872
v  34.3534 14.2733 -39.1224
v  34.3534 14.6514 -38.7158
v  34.3534 14.6014 -37.3377
v  34.3534 14.1948 -36.9596
# 64 vertices

vn 0.0000 -1.0000 0.0000
vn -0.5142 0.7583 0.4007
vn 0.5144 0.7583 0.4006
vn 0.4940 0.7268 -0.4772
vn -0.4938 0.7268 -0.4773
vn -0.7865 -0.2573 0.5614
vn 0.7865 -0.2573 0.5614
vn 0.5998 -0.3334 0.7274
vn -0.5998 -0.3334 0.7274
vn 0.7071 0.0000 -0.7071
vn 0.6988 0.0000 -0.7153
vn -0.7071 0.0000 -0.7071
vn -0.6988 0.0000 -0.7153
vn 0.0000 0.0000 -1.0000
vn 1.0000 0.0000 -0.0000
vn -0.0005 0.9993 0.0369
vn 0.0005 0.9993 0.0369
vn 0.0027 0.9993 0.0362
vn -0.0014 0.9993 0.0366
vn -0.0000 0.9993 0.0363
vn 0.0001 0.9993 0.0362
vn -0.0035 0.9993 0.0365
vn -1.0000 0.0000 -0.0000
vn -0.0010 0.9993 0.0365
vn 0.0000 0.9994 0.0359
vn -0.0001 0.9994 0.0360
vn 0.0004 0.9994 0.0359
vn -0.5428 0.5318 0.6501
vn 0.5428 0.5320 0.6499
vn 0.6651 0.3763 -0.6450
vn 0.0000 0.2822 -0.9594
vn -0.6650 0.3761 -0.6453
vn 0.0017 0.9992 0.0396
vn 0.0112 0.9991 0.0415
vn 0.0004 0.9994 0.0360
vn -0.0015 0.9992 0.0395
vn -0.8941 0.4475 0.0188
vn -0.0002 0.9993 0.0363
vn 0.0008 0.9991 0.0413
vn -0.0000 0.9994 0.0359
vn 0.0005 0.9992 0.0392
vn 0.0005 0.9994 0.0360
vn 0.0000 0.9991 0.0419
vn 0.0000 0.9872 -0.1594
vn 0.0000 0.9731 0.2305
vn 0.0000 0.0373 -0.9993
vn 0.0000 0.2311 -0.9729
vn 0.0000 -0.0373 0.9993
vn 0.0000 0.1589 0.9873
vn 0.0000 0.8511 -0.5250
vn 0.0000 0.5854 -0.8108
vn 0.0000 0.8108 0.5854
vn 0.0000 0.5250 0.8511
# 53 vertex normals

vt 0.5062 0.3688 0.4983
vt 0.5062 0.6593 0.4983
vt 0.9658 0.6593 0.4983
vt 0.9658 0.3688 0.4983
vt 0.5068 0.2087 0.0000
vt 0.9195 0.2087 0.0000
vt 0.9195 0.3456 0.0000
vt 0.5068 0.3456 0.0000
vt 0.5062 0.3565 0.4983
vt 0.9658 0.3565 0.4983
vt 0.9658 0.3853 0.4983
vt 0.5062 0.3853 0.4983
vt 0.0416 0.1825 0.0000
vt 0.2112 0.1825 0.0000
vt 0.2112 0.2057 0.0000
vt 0.0370 0.2004 0.0000
vt 0.9659 0.6390 0.4983
vt 0.5064 0.6390 0.4983
vt 0.5064 0.6593 0.4983
vt 0.8940 0.6593 0.4983
vt 0.5663 0.6593 0.4983
vt 0.6008 0.6593 0.4983
vt 0.8835 0.6593 0.4983
vt 0.9659 0.6593 0.4983
vt 0.0497 0.2653 0.0000
vt 0.2100 0.2653 0.0000
vt 0.2128 0.2814 0.0000
vt 0.0497 0.2858 0.0000
vt 0.0321 0.3570 0.0000
vt 0.4908 0.3570 0.0000
vt 0.4449 0.4725 0.0000
vt 0.0780 0.4725 0.0000
vt 0.4908 0.6602 0.0000
vt 0.4449 0.6224 0.0000
vt 0.4190 0.6602 0.0000
vt 0.4190 0.6582 0.0000
vt 0.4190 0.6486 0.0000
vt 0.4190 0.6224 0.0000
vt 0.0321 0.6602 0.0000
vt 0.0780 0.6224 0.0000
vt 0.5045 0.2054 0.0000
vt 0.9215 0.2054 0.0000
vt 0.9215 0.3468 0.0000
vt 0.8921 0.3468 0.0000
vt 0.8729 0.3468 0.0000
vt 0.5107 0.3468 0.0000
vt 0.5595 0.3468 0.0000
vt 0.5045 0.3468 0.0000
vt 0.0919 0.6602 0.0000
vt 0.0919 0.6582 0.0000
vt 0.0834 0.6224 0.0000
vt 0.0919 0.6486 0.0000
vt 0.1264 0.6602 0.0000
vt 0.1264 0.6582 0.0000
vt 0.1264 0.6486 0.0000
vt 0.4085 0.6602 0.0000
vt 0.1264 0.6224 0.0000
vt 0.4085 0.6582 0.0000
vt 0.4021 0.6224 0.0000
vt 0.4085 0.6486 0.0000
vt 0.5444 0.5392 0.0000
vt 0.5444 0.5391 0.0000
vt 0.5663 0.5391 0.0000
vt 0.5663 0.5392 0.0000
vt 0.5187 0.5400 0.0000
vt 0.5187 0.5399 0.0000
vt 0.5314 0.5399 0.0000
vt 0.5314 0.5400 0.0000
vt 0.5663 0.5164 0.0000
vt 0.5444 0.5164 0.0000
vt 0.5444 0.5345 0.0000
vt 0.5663 0.5345 0.0000
vt 0.6777 0.5184 0.0000
vt 0.6789 0.5361 0.0000
vt 0.6774 0.5383 0.0000
vt 0.6704 0.5411 0.0000
vt 0.6742 0.5401 0.0000
vt 0.6562 0.5188 0.0000
vt 0.6574 0.5365 0.0000
vt 0.6665 0.5412 0.0000
vt 0.6626 0.5404 0.0000
vt 0.6591 0.5386 0.0000
vt 0.5444 0.5159 0.0000
vt 0.5663 0.5159 0.0000
vt 0.5663 0.5341 0.0000
vt 0.5444 0.5341 0.0000
vt 0.5314 0.5175 0.0000
vt 0.5187 0.5175 0.0000
vt 0.5187 0.5353 0.0000
vt 0.5314 0.5353 0.0000
vt 0.6461 0.5191 0.0000
vt 0.6476 0.5373 0.0000
vt 0.6458 0.5395 0.0000
vt 0.6375 0.5424 0.0000
vt 0.6420 0.5414 0.0000
vt 0.6204 0.5195 0.0000
vt 0.6219 0.5378 0.0000
vt 0.6328 0.5425 0.0000
vt 0.6281 0.5417 0.0000
vt 0.6240 0.5399 0.0000
vt 0.5187 0.5171 0.0000
vt 0.5314 0.5171 0.0000
vt 0.5314 0.5349 0.0000
vt 0.5187 0.5349 0.0000
vt 0.5663 0.5384 0.0000
vt 0.5663 0.5366 0.0000
vt 0.5444 0.5366 0.0000
vt 0.5444 0.5384 0.0000
vt 0.5444 0.5382 0.0000
vt 0.5444 0.5363 0.0000
vt 0.5663 0.5363 0.0000
vt 0.5663 0.5382 0.0000
vt 0.5314 0.5392 0.0000
vt 0.5314 0.5374 0.0000
vt 0.5187 0.5374 0.0000
vt 0.5187 0.5392 0.0000
vt 0.5187 0.5389 0.0000
vt 0.5187 0.5371 0.0000
vt 0.5314 0.5371 0.0000
vt 0.5314 0.5389 0.0000
# 120 texture coords

g Box001
usemtl 02___Default
s 8
f 1/1/1 2/2/1 3/3/1 4/4/1 
s 96
f 5/5/2 6/6/3 7/7/4 8/8/5 
s 16
f 1/9/6 4/10/7 9/11/8 10/12/9 
f 4/13/7 3/14/10 11/15/11 9/16/8 
f 3/17/10 2/18/12 12/19/13 13/20/14 
f 12/19/13 14/21/15 15/22/15 13/20/14 
f 15/22/15 16/23/15 13/20/14 
f 3/17/10 13/20/14 11/24/11 
f 2/25/12 1/26/6 10/27/9 12/28/13 
s 128
f 10/29/16 9/30/17 17/31/18 18/32/19 
f 9/30/17 11/33/20 19/34/21 17/31/18 
f 13/35/22 20/36/23 21/37/24 19/34/21 
f 21/37/24 22/38/25 19/34/21 
f 11/33/20 13/35/22 19/34/21 
f 12/39/26 10/29/16 18/32/19 23/40/27 
s 96
f 18/41/28 17/42/29 6/6/3 5/5/2 
f 17/42/29 19/43/30 7/7/4 6/6/3 
f 19/43/30 22/44/15 24/45/15 25/46/31 
f 24/45/15 26/47/15 25/46/31 
f 25/46/31 23/48/32 8/8/5 19/43/30 
f 19/43/30 8/8/5 7/7/4 
f 23/48/32 18/41/28 5/5/2 8/8/5 
s 128
f 14/49/33 12/39/26 23/40/27 27/50/34 
f 25/51/25 28/52/35 27/50/34 23/40/27 
f 15/53/36 29/54/37 30/55/38 16/56/39 
f 16/56/39 30/55/38 26/57/40 31/58/41 
f 24/59/25 32/60/42 31/58/41 26/57/40 
s 8
f 16/56/43 31/58/43 20/36/43 13/35/43 
s 128
f 14/49/33 27/50/34 29/54/37 15/53/36 
f 25/51/25 26/57/40 30/55/38 28/52/35 
f 24/59/25 22/38/25 21/37/24 32/60/42 
s 4
f 33/61/44 34/62/45 35/63/45 36/64/44 
f 37/65/44 38/66/45 39/67/45 40/68/44 
s 1
f 29/69/46 27/70/46 41/71/47 42/72/47 
s 2
f 28/73/23 43/74/23 44/75/23 34/76/23 
f 44/75/23 45/77/23 34/76/23 
f 27/78/23 28/73/23 34/76/23 41/79/23 
f 34/76/23 33/80/23 46/81/23 41/79/23 
f 46/81/23 47/82/23 41/79/23 
s 1
f 28/83/48 30/84/48 48/85/49 43/86/49 
s 2
f 29/78/15 42/79/15 49/82/15 36/80/15 
f 49/82/15 50/81/15 36/80/15 
f 30/73/15 29/78/15 36/80/15 48/74/15 
f 36/80/15 35/76/15 51/77/15 48/74/15 
f 51/77/15 52/75/15 48/74/15 
s 1
f 20/87/46 31/88/46 53/89/47 54/90/47 
s 2
f 32/91/23 55/92/23 56/93/23 38/94/23 
f 56/93/23 57/95/23 38/94/23 
f 31/96/23 32/91/23 38/94/23 53/97/23 
f 38/94/23 37/98/23 58/99/23 53/97/23 
f 58/99/23 59/100/23 53/97/23 
s 1
f 32/101/48 21/102/48 60/103/49 55/104/49 
s 2
f 20/96/15 54/97/15 61/100/15 40/98/15 
f 61/100/15 62/99/15 40/98/15 
f 21/91/15 20/96/15 40/98/15 60/92/15 
f 40/98/15 39/94/15 63/95/15 60/92/15 
f 63/95/15 64/93/15 60/92/15 
s 4
f 50/105/50 49/106/51 47/107/51 46/108/50 
f 45/109/52 44/110/53 52/111/53 51/112/52 
f 62/113/50 61/114/51 59/115/51 58/116/50 
f 57/117/52 56/118/53 64/119/53 63/120/52 
f 36/64/44 50/105/50 46/108/50 33/61/44 
f 34/62/45 45/109/52 51/112/52 35/63/45 
f 40/68/44 62/113/50 58/116/50 37/65/44 
f 38/66/45 57/117/52 63/120/52 39/67/45 
s 5
f 49/106/51 42/72/47 41/71/47 47/107/51 
f 44/110/53 43/86/49 48/85/49 52/111/53 
f 61/114/51 54/90/47 53/89/47 59/115/51 
f 56/118/53 55/104/49 60/103/49 64/119/53 
# 55 polygons - 14 triangles

#
# object Box002
#

v  -44.5000 80.2079 -63.5523
v  -44.5000 20.5485 -41.8381
v  44.5000 20.5485 -41.8381
v  44.5000 80.2079 -63.5523
v  -48.4300 83.9872 -68.1204
v  48.4300 83.9872 -68.1204
v  48.4300 12.0676 -41.9438
v  -37.2173 12.0676 -41.9438
v  34.5425 12.0676 -41.9438
v  31.9377 12.0676 -41.9438
v  -29.2629 12.0676 -41.9438
v  -48.4300 12.0676 -41.9438
v  -50.0000 86.9832 -64.9541
v  50.0000 86.9832 -64.9541
v  50.0000 11.8077 -37.5925
v  34.5425 11.9377 -39.7681
v  34.5425 11.8077 -37.5925
v  -50.0000 11.8077 -37.5925
v  -45.5000 19.9508 -40.5563
v  -45.5000 81.4896 -62.9546
v  -37.2173 16.8515 -39.4283
v  -37.2173 19.9508 -40.5563
v  -37.2173 11.8077 -37.5925
v  45.5000 81.4896 -62.9546
v  45.5000 19.9508 -40.5563
v  -29.2629 19.9508 -40.5563
v  34.5425 19.9508 -40.5563
v  31.9377 19.9508 -40.5563
v  -37.2173 11.9377 -39.7681
v  34.5425 16.8515 -39.4283
v  31.9377 11.8077 -37.5925
v  -29.2629 11.8077 -37.5925
v  -29.2629 11.9377 -39.7681
v  31.9377 11.9377 -39.7681
v  31.9377 16.8515 -39.4283
v  -29.2629 16.8515 -39.4283
v  34.5425 15.2944 -42.0095
v  31.9377 15.2944 -42.0095
v  -37.2173 15.2944 -42.0095
v  -29.2629 15.2944 -42.0095
# 40 vertices

vn 0.3002 0.0276 0.9535
vn 0.3002 0.5918 0.7481
vn -0.3002 0.5918 0.7481
vn -0.3002 0.0276 0.9535
vn 0.0000 -0.3420 -0.9397
vn 1.0000 0.0000 -0.0000
vn 0.0000 0.7264 -0.6873
vn 0.9309 -0.1250 -0.3433
vn 0.0000 -0.9982 -0.0596
vn -0.9309 -0.1250 -0.3433
vn 0.0000 0.3420 0.9397
vn -0.0000 0.3420 0.9397
vn 0.4082 -0.1044 0.9069
vn 0.4082 0.6629 0.6276
vn 0.0000 -0.9397 0.3420
vn 0.0000 0.9063 0.4226
vn -0.4082 0.6629 0.6276
vn -0.4082 -0.1044 0.9069
vn -1.0000 0.0000 -0.0000
vn -0.0000 -0.8563 0.5165
vn 1.0000 0.0000 0.0000
vn 1.0000 -0.0000 0.0000
vn 1.0000 -0.0000 -0.0000
vn -0.0000 0.5553 0.8316
vn 0.0000 0.5553 0.8316
vn 0.0000 -0.8563 0.5165
# 26 vertex normals

vt 0.7288 0.0340 0.0000
vt 0.7288 0.1896 0.0000
vt 0.5043 0.1896 0.0000
vt 0.5043 0.0340 0.0000
vt 0.5133 0.9695 0.0000
vt 0.9563 0.9695 0.0000
vt 0.9563 0.6806 0.0000
vt 0.5646 0.6806 0.0000
vt 0.8928 0.6806 0.0000
vt 0.8808 0.6806 0.0000
vt 0.6010 0.6806 0.0000
vt 0.5133 0.6806 0.0000
vt 0.5062 0.9761 0.0000
vt 0.9634 0.9761 0.0000
vt 0.9634 0.6741 0.0000
vt 0.8928 0.6773 0.0000
vt 0.8928 0.6741 0.0000
vt 0.5062 0.6741 0.0000
vt 0.0351 0.9758 0.0000
vt 0.0351 0.6749 0.0000
vt 0.0556 0.7075 0.0000
vt 0.0556 0.9538 0.0000
vt 0.0935 0.6950 0.0000
vt 0.0935 0.7075 0.0000
vt 0.0935 0.6749 0.0000
vt 0.4926 0.6749 0.0000
vt 0.4926 0.9758 0.0000
vt 0.4720 0.9538 0.0000
vt 0.4720 0.7075 0.0000
vt 0.0692 0.9445 0.0000
vt 0.0692 0.7176 0.0000
vt 0.0734 0.7211 0.0000
vt 0.0734 0.9411 0.0000
vt 0.1041 0.7176 0.0000
vt 0.1377 0.7176 0.0000
vt 0.4069 0.7176 0.0000
vt 0.3959 0.7176 0.0000
vt 0.4531 0.7176 0.0000
vt 0.4489 0.7211 0.0000
vt 0.4531 0.9445 0.0000
vt 0.4489 0.9411 0.0000
vt 0.5646 0.6741 0.0000
vt 0.5646 0.6773 0.0000
vt 0.4218 0.6749 0.0000
vt 0.4218 0.6950 0.0000
vt 0.4218 0.7075 0.0000
vt 0.8808 0.6741 0.0000
vt 0.6010 0.6741 0.0000
vt 0.6010 0.6773 0.0000
vt 0.8808 0.6773 0.0000
vt 0.1299 0.6749 0.0000
vt 0.4099 0.6749 0.0000
vt 0.4099 0.6950 0.0000
vt 0.4099 0.7075 0.0000
vt 0.1299 0.7075 0.0000
vt 0.1299 0.6950 0.0000
vt 0.4016 0.5145 0.0000
vt 0.4016 0.5121 0.0000
vt 0.4016 0.5252 0.0000
vt 0.4016 0.5268 0.0000
vt 0.3959 0.5268 0.0000
vt 0.3959 0.5252 0.0000
vt 0.3959 0.5121 0.0000
vt 0.3959 0.5145 0.0000
vt 0.2464 0.5268 0.0000
vt 0.2464 0.5121 0.0000
vt 0.2464 0.5252 0.0000
vt 0.2464 0.5145 0.0000
vt 0.2636 0.5145 0.0000
vt 0.2636 0.5252 0.0000
vt 0.2636 0.5121 0.0000
vt 0.2636 0.5268 0.0000
# 72 texture coords

g Box002
usemtl 02___Default
s 1
f 65/121/54 66/122/55 67/123/56 68/124/57 
f 69/125/58 70/126/58 71/127/58 72/128/58 
f 71/127/58 73/129/59 74/130/59 72/128/58 
f 74/130/59 75/131/59 72/128/58 
f 69/125/58 72/128/58 76/132/58 
s off
f 77/133/60 78/134/60 70/126/60 69/125/60 
f 78/134/61 79/135/61 71/127/61 70/126/61 
f 80/136/62 73/129/62 71/127/62 81/137/62 
f 79/135/62 81/137/62 71/127/62 
f 82/138/63 77/133/63 69/125/63 76/132/63 
s 4
f 77/139/64 82/140/65 83/141/65 84/142/64 
f 85/143/64 86/144/64 83/141/65 87/145/65 
f 82/140/65 87/145/65 83/141/65 
f 79/146/64 78/147/65 88/148/65 89/149/64 
f 78/147/65 77/139/64 84/142/64 88/148/65 
s 1
f 84/150/66 83/151/67 66/152/55 65/153/54 
f 83/151/67 86/154/68 90/155/68 91/156/69 
f 90/155/68 92/157/59 91/156/69 
f 91/156/69 89/158/70 67/159/56 83/151/67 
f 83/151/67 67/159/56 66/152/55 
f 89/158/70 88/160/71 68/161/57 67/159/56 
f 88/160/71 84/150/66 65/153/54 68/161/57 
s off
f 87/162/62 82/138/62 76/132/62 93/163/62 
f 76/132/62 72/128/62 93/163/62 
s 4
f 81/164/64 79/146/64 89/149/64 94/165/65 
f 89/149/64 91/166/65 94/165/65 
s off
f 95/167/62 96/168/62 97/169/62 75/131/62 
f 75/131/62 74/130/62 98/170/62 95/167/62 
s 4
f 96/171/64 95/172/64 99/173/65 92/174/65 
f 92/174/65 90/175/65 100/176/64 96/171/64 
f 90/175/65 86/144/64 85/143/64 100/176/64 
s off
f 72/128/62 75/131/62 97/169/62 93/163/62 
f 74/130/62 73/129/62 80/136/62 98/170/62 
s 4
f 91/166/65 92/174/65 99/173/65 94/165/65 
s 1
f 80/177/72 81/178/72 101/179/72 
f 81/178/72 94/180/72 101/179/72 
s off
f 94/180/73 99/181/73 102/182/73 101/179/73 
s 1
f 99/181/74 95/183/75 102/182/74 
f 95/183/75 98/184/76 102/182/74 
s 4
f 98/184/77 80/177/78 101/179/77 102/182/77 
s 1
f 85/185/59 87/186/59 103/187/59 
f 87/186/59 93/188/59 103/187/59 
s 4
f 93/188/78 97/189/78 104/190/78 103/187/78 
s 1
f 97/189/72 96/191/72 104/190/72 
f 96/191/72 100/192/72 104/190/72 
s off
f 100/192/79 85/185/79 103/187/79 104/190/79 
# 30 polygons - 16 triangles

